<?xml version="1.0" encoding="UTF-8" ?>
<svg version="1.1" width="16" height="16" xmlns="http://www.w3.org/2000/svg" shape-rendering="crispEdges">
<rect x="0" y="0" width="1" height="1" fill="#FA8807" opacity="0.011765" />
<rect x="2" y="0" width="1" height="1" fill="#E73120" opacity="0.800000" />
<rect x="3" y="0" width="6" height="1" fill="#E72020" />
<rect x="9" y="0" width="1" height="1" fill="#E82E21" opacity="0.956863" />
<rect x="10" y="0" width="1" height="1" fill="#E95D22" opacity="0.419608" />
<rect x="15" y="0" width="1" height="1" fill="#E8AA21" opacity="0.003922" />
<rect x="1" y="1" width="1" height="1" fill="#E73620" opacity="0.839216" />
<rect x="2" y="1" width="1" height="1" fill="#E74920" opacity="0.815686" />
<rect x="3" y="1" width="1" height="1" fill="#E75A20" opacity="0.474510" />
<rect x="4" y="1" width="1" height="1" fill="#E75920" opacity="0.549020" />
<rect x="5" y="1" width="1" height="1" fill="#E75A20" opacity="0.556863" />
<rect x="6" y="1" width="1" height="1" fill="#E75820" opacity="0.541176" />
<rect x="7" y="1" width="1" height="1" fill="#E75520" opacity="0.627451" />
<rect x="8" y="1" width="1" height="1" fill="#E83021" opacity="0.976471" />
<rect x="9" y="1" width="1" height="1" fill="#E73020" opacity="0.980392" />
<rect x="10" y="1" width="1" height="1" fill="#E72F20" opacity="0.968627" />
<rect x="11" y="1" width="1" height="1" fill="#E74420" opacity="0.878431" />
<rect x="12" y="1" width="1" height="1" fill="#E84521" opacity="0.882353" />
<rect x="13" y="1" width="1" height="1" fill="#E84521" opacity="0.886275" />
<rect x="14" y="1" width="1" height="1" fill="#E86C21" opacity="0.517647" />
<rect x="1" y="2" width="1" height="1" fill="#E73A20" opacity="0.945098" />
<rect x="2" y="2" width="1" height="1" fill="#E73D20" opacity="0.968627" />
<rect x="3" y="2" width="1" height="1" fill="#E96222" opacity="0.227451" />
<rect x="8" y="2" width="1" height="1" fill="#E95A22" opacity="0.541176" />
<rect x="9" y="2" width="1" height="1" fill="#E73020" opacity="0.976471" />
<rect x="10" y="2" width="4" height="4" fill="#E72020" />
<rect x="14" y="2" width="1" height="1" fill="#E82020" />
<rect x="15" y="2" width="1" height="1" fill="#E86621" opacity="0.478431" />
<rect x="1" y="3" width="1" height="1" fill="#E73E20" opacity="0.901961" />
<rect x="2" y="3" width="1" height="3" fill="#E72020" />
<rect x="3" y="3" width="1" height="1" fill="#E83B21" opacity="0.949020" />
<rect x="4" y="3" width="1" height="1" fill="#E76020" opacity="0.270588" />
<rect x="5" y="3" width="1" height="1" fill="#E6561F" opacity="0.121569" />
<rect x="6" y="3" width="1" height="1" fill="#E76720" opacity="0.152941" />
<rect x="7" y="3" width="1" height="1" fill="#E76320" opacity="0.145098" />
<rect x="8" y="3" width="1" height="1" fill="#E2B11B" opacity="0.007843" />
<rect x="9" y="3" width="1" height="1" fill="#E74220" opacity="0.890196" />
<rect x="14" y="3" width="1" height="3" fill="#E72020" />
<rect x="15" y="3" width="1" height="1" fill="#E82020" />
<rect x="1" y="4" width="1" height="1" fill="#E73E20" opacity="0.898039" />
<rect x="3" y="4" width="1" height="3" fill="#E72020" />
<rect x="4" y="4" width="5" height="1" fill="#E72C20" opacity="0.992157" />
<rect x="9" y="4" width="1" height="1" fill="#E72C20" opacity="0.996078" />
<rect x="15" y="4" width="1" height="2" fill="#E72020" />
<rect x="1" y="5" width="1" height="1" fill="#E74020" opacity="0.913725" />
<rect x="4" y="5" width="6" height="2" fill="#E72020" />
<rect x="1" y="6" width="1" height="1" fill="#E75420" opacity="0.639216" />
<rect x="2" y="6" width="1" height="1" fill="#E73320" opacity="0.972549" />
<rect x="10" y="6" width="3" height="1" fill="#E72020" />
<rect x="13" y="6" width="1" height="1" fill="#E72E20" />
<rect x="14" y="6" width="1" height="1" fill="#E73720" opacity="0.972549" />
<rect x="15" y="6" width="1" height="1" fill="#E74320" opacity="0.882353" />
<rect x="0" y="7" width="1" height="1" fill="#E7A920" opacity="0.003922" />
<rect x="2" y="7" width="1" height="1" fill="#E74920" opacity="0.564706" />
<rect x="3" y="7" width="1" height="1" fill="#E73620" opacity="0.992157" />
<rect x="4" y="7" width="1" height="1" fill="#E72E20" />
<rect x="5" y="7" width="1" height="1" fill="#E72D20" opacity="0.996078" />
<rect x="6" y="7" width="7" height="1" fill="#E72D20" opacity="0.992157" />
<rect x="13" y="7" width="1" height="1" fill="#E83721" opacity="0.968627" />
<rect x="14" y="7" width="1" height="1" fill="#E85321" opacity="0.686275" />
<rect x="3" y="8" width="1" height="1" fill="#E75F20" opacity="0.309804" />
<rect x="4" y="8" width="1" height="8" fill="#E72020" />
<rect x="5" y="8" width="1" height="1" fill="#E75220" opacity="0.686275" />
<rect x="6" y="8" width="1" height="1" fill="#E6A921" opacity="0.015686" />
<rect x="7" y="8" width="2" height="1" fill="#E76520" opacity="0.149020" />
<rect x="9" y="8" width="3" height="1" fill="#E7681F" opacity="0.156863" />
<rect x="12" y="8" width="1" height="1" fill="#E7691F" opacity="0.156863" />
<rect x="13" y="8" width="1" height="1" fill="#E86421" opacity="0.145098" />
<rect x="14" y="8" width="1" height="1" fill="#E84E21" opacity="0.109804" />
<rect x="1" y="9" width="1" height="1" fill="#E7AA20" opacity="0.003922" />
<rect x="3" y="9" width="1" height="1" fill="#E7A820" opacity="0.050980" />
<rect x="5" y="9" width="1" height="1" fill="#E75520" opacity="0.600000" />
<rect x="8" y="9" width="2" height="1" fill="#F7AA00" opacity="0.007843" />
<rect x="3" y="10" width="1" height="1" fill="#E7A920" opacity="0.090196" />
<rect x="5" y="10" width="1" height="1" fill="#E75820" opacity="0.619608" />
<rect x="7" y="10" width="1" height="1" fill="#FBAA00" opacity="0.015686" />
<rect x="3" y="11" width="1" height="1" fill="#E7A920" opacity="0.082353" />
<rect x="5" y="11" width="1" height="2" fill="#E75720" opacity="0.615686" />
<rect x="7" y="11" width="1" height="1" fill="#F7AA00" opacity="0.007843" />
<rect x="1" y="12" width="1" height="1" fill="#B36408" opacity="0.011765" />
<rect x="3" y="12" width="1" height="1" fill="#E8AA20" opacity="0.043137" />
<rect x="15" y="12" width="1" height="2" fill="#F7AA00" opacity="0.007843" />
<rect x="2" y="13" width="1" height="1" fill="#E75A1E" opacity="0.427451" />
<rect x="3" y="13" width="1" height="1" fill="#E73F20" opacity="0.921569" />
<rect x="5" y="13" width="1" height="1" fill="#E75520" opacity="0.596078" />
<rect x="14" y="13" width="1" height="1" fill="#F7AA00" opacity="0.023529" />
<rect x="2" y="14" width="1" height="1" fill="#E7521E" opacity="0.654902" />
<rect x="3" y="14" width="1" height="2" fill="#E72020" />
<rect x="5" y="14" width="1" height="1" fill="#E75320" opacity="0.584314" />
<rect x="7" y="14" width="1" height="1" fill="#F7AA00" opacity="0.015686" />
<rect x="14" y="14" width="1" height="1" fill="#F7AA00" opacity="0.007843" />
<rect x="2" y="15" width="1" height="1" fill="#E74F1E" opacity="0.631373" />
<rect x="5" y="15" width="1" height="1" fill="#E75420" opacity="0.588235" />
<rect x="8" y="15" width="3" height="1" fill="#F7AA00" opacity="0.007843" />
</svg>