<?xml version="1.0" encoding="UTF-8" ?>
<svg version="1.1" width="64" height="64" xmlns="http://www.w3.org/2000/svg" shape-rendering="crispEdges">
<rect x="0" y="0" width="64" height="3" fill="#1A171A" />
<rect x="0" y="3" width="30" height="1" fill="#1A171A" />
<rect x="30" y="3" width="6" height="1" fill="#000000" />
<rect x="36" y="3" width="28" height="1" fill="#1A171A" />
<rect x="0" y="4" width="25" height="1" fill="#1A171A" />
<rect x="25" y="4" width="5" height="1" fill="#000000" />
<rect x="30" y="4" width="1" height="1" fill="#B6AEA7" />
<rect x="31" y="4" width="1" height="1" fill="#C1B8B1" />
<rect x="32" y="4" width="2" height="1" fill="#B6AEA7" />
<rect x="34" y="4" width="2" height="1" fill="#C1B8B1" />
<rect x="36" y="4" width="5" height="1" fill="#000000" />
<rect x="41" y="4" width="23" height="1" fill="#1A171A" />
<rect x="0" y="5" width="21" height="1" fill="#1A171A" />
<rect x="21" y="5" width="4" height="1" fill="#000000" />
<rect x="25" y="5" width="4" height="1" fill="#B6AEA7" />
<rect x="29" y="5" width="1" height="1" fill="#C1B8B1" />
<rect x="30" y="5" width="2" height="1" fill="#D7D2CE" />
<rect x="32" y="5" width="1" height="1" fill="#C1B8B1" />
<rect x="33" y="5" width="1" height="1" fill="#B6AEA7" />
<rect x="34" y="5" width="1" height="1" fill="#C1B8B1" />
<rect x="35" y="5" width="2" height="1" fill="#D7D2CE" />
<rect x="37" y="5" width="2" height="1" fill="#C1B8B1" />
<rect x="39" y="5" width="2" height="1" fill="#B6AEA7" />
<rect x="41" y="5" width="4" height="1" fill="#000000" />
<rect x="45" y="5" width="19" height="1" fill="#1A171A" />
<rect x="0" y="6" width="20" height="1" fill="#1A171A" />
<rect x="20" y="6" width="1" height="2" fill="#000000" />
<rect x="21" y="6" width="1" height="2" fill="#C1B8B1" />
<rect x="22" y="6" width="3" height="2" fill="#B6AEA7" />
<rect x="25" y="6" width="3" height="2" fill="#C1B8B1" />
<rect x="28" y="6" width="1" height="2" fill="#B6AEA7" />
<rect x="29" y="6" width="1" height="3" fill="#D7D2CE" />
<rect x="30" y="6" width="1" height="5" fill="#E2DEDB" />
<rect x="31" y="6" width="1" height="2" fill="#D7D2CE" />
<rect x="32" y="6" width="1" height="4" fill="#E2DEDB" />
<rect x="33" y="6" width="1" height="2" fill="#C1B8B1" />
<rect x="34" y="6" width="1" height="2" fill="#D7D2CE" />
<rect x="35" y="6" width="1" height="5" fill="#E2DEDB" />
<rect x="36" y="6" width="3" height="2" fill="#D7D2CE" />
<rect x="39" y="6" width="1" height="2" fill="#C1B8B1" />
<rect x="40" y="6" width="1" height="2" fill="#D7D2CE" />
<rect x="41" y="6" width="1" height="2" fill="#C1B8B1" />
<rect x="42" y="6" width="3" height="2" fill="#B6AEA7" />
<rect x="45" y="6" width="1" height="2" fill="#000000" />
<rect x="46" y="6" width="18" height="1" fill="#1A171A" />
<rect x="0" y="7" width="14" height="1" fill="#1A171A" />
<rect x="14" y="7" width="6" height="1" fill="#000000" />
<rect x="46" y="7" width="6" height="1" fill="#000000" />
<rect x="52" y="7" width="12" height="1" fill="#1A171A" />
<rect x="0" y="8" width="11" height="1" fill="#1A171A" />
<rect x="11" y="8" width="3" height="1" fill="#000000" />
<rect x="14" y="8" width="2" height="1" fill="#B6AEA7" />
<rect x="16" y="8" width="2" height="1" fill="#C1B8B1" />
<rect x="18" y="8" width="3" height="1" fill="#B6AEA7" />
<rect x="21" y="8" width="1" height="1" fill="#D7D2CE" />
<rect x="22" y="8" width="2" height="1" fill="#C1B8B1" />
<rect x="24" y="8" width="2" height="1" fill="#D7D2CE" />
<rect x="26" y="8" width="2" height="7" fill="#E2DEDB" />
<rect x="28" y="8" width="1" height="1" fill="#C1B8B1" />
<rect x="31" y="8" width="1" height="2" fill="#E2DEDB" />
<rect x="33" y="8" width="1" height="1" fill="#D7D2CE" />
<rect x="34" y="8" width="1" height="2" fill="#E2DEDB" />
<rect x="36" y="8" width="1" height="1" fill="#D7D2CE" />
<rect x="37" y="8" width="2" height="12" fill="#E2DEDB" />
<rect x="39" y="8" width="1" height="2" fill="#D7D2CE" />
<rect x="40" y="8" width="2" height="11" fill="#E2DEDB" />
<rect x="42" y="8" width="1" height="1" fill="#D7D2CE" />
<rect x="43" y="8" width="2" height="1" fill="#C1B8B1" />
<rect x="45" y="8" width="1" height="2" fill="#D7D2CE" />
<rect x="46" y="8" width="1" height="1" fill="#C1B8B1" />
<rect x="47" y="8" width="4" height="1" fill="#B6AEA7" />
<rect x="51" y="8" width="1" height="1" fill="#C1B8B1" />
<rect x="52" y="8" width="3" height="1" fill="#000000" />
<rect x="55" y="8" width="9" height="1" fill="#1A171A" />
<rect x="0" y="9" width="10" height="1" fill="#1A171A" />
<rect x="10" y="9" width="1" height="1" fill="#000000" />
<rect x="11" y="9" width="1" height="1" fill="#C1B8B1" />
<rect x="12" y="9" width="3" height="1" fill="#B6AEA7" />
<rect x="15" y="9" width="1" height="2" fill="#C1B8B1" />
<rect x="16" y="9" width="3" height="1" fill="#D7D2CE" />
<rect x="19" y="9" width="3" height="7" fill="#E2DEDB" />
<rect x="22" y="9" width="1" height="1" fill="#D7D2CE" />
<rect x="23" y="9" width="1" height="1" fill="#C1B8B1" />
<rect x="24" y="9" width="1" height="1" fill="#D7D2CE" />
<rect x="25" y="9" width="1" height="7" fill="#E2DEDB" />
<rect x="28" y="9" width="1" height="1" fill="#D7D2CE" />
<rect x="29" y="9" width="1" height="11" fill="#E2DEDB" />
<rect x="33" y="9" width="1" height="1" fill="#E2DEDB" />
<rect x="36" y="9" width="1" height="11" fill="#E2DEDB" />
<rect x="42" y="9" width="1" height="10" fill="#E2DEDB" />
<rect x="43" y="9" width="1" height="1" fill="#C1B8B1" />
<rect x="44" y="9" width="1" height="1" fill="#D7D2CE" />
<rect x="46" y="9" width="3" height="9" fill="#E2DEDB" />
<rect x="49" y="9" width="1" height="1" fill="#D7D2CE" />
<rect x="50" y="9" width="1" height="1" fill="#C1B8B1" />
<rect x="51" y="9" width="1" height="1" fill="#D7D2CE" />
<rect x="52" y="9" width="1" height="6" fill="#E2DEDB" />
<rect x="53" y="9" width="1" height="1" fill="#C1B8B1" />
<rect x="54" y="9" width="1" height="2" fill="#B6AEA7" />
<rect x="55" y="9" width="1" height="1" fill="#000000" />
<rect x="56" y="9" width="8" height="1" fill="#1A171A" />
<rect x="0" y="10" width="9" height="1" fill="#1A171A" />
<rect x="9" y="10" width="1" height="1" fill="#000000" />
<rect x="10" y="10" width="1" height="1" fill="#C1B8B1" />
<rect x="11" y="10" width="1" height="5" fill="#E2DEDB" />
<rect x="12" y="10" width="1" height="1" fill="#D7D2CE" />
<rect x="13" y="10" width="1" height="1" fill="#C1B8B1" />
<rect x="14" y="10" width="1" height="2" fill="#B6AEA7" />
<rect x="16" y="10" width="3" height="6" fill="#E2DEDB" />
<rect x="22" y="10" width="1" height="8" fill="#E2DEDB" />
<rect x="23" y="10" width="1" height="2" fill="#D7D2CE" />
<rect x="24" y="10" width="1" height="9" fill="#E2DEDB" />
<rect x="28" y="10" width="1" height="8" fill="#E2DEDB" />
<rect x="31" y="10" width="2" height="1" fill="#191919" />
<rect x="33" y="10" width="2" height="1" fill="#141414" />
<rect x="39" y="10" width="1" height="10" fill="#E2DEDB" />
<rect x="43" y="10" width="1" height="2" fill="#D7D2CE" />
<rect x="44" y="10" width="2" height="5" fill="#E2DEDB" />
<rect x="49" y="10" width="1" height="6" fill="#E2DEDB" />
<rect x="50" y="10" width="1" height="2" fill="#D7D2CE" />
<rect x="51" y="10" width="1" height="6" fill="#E2DEDB" />
<rect x="53" y="10" width="1" height="1" fill="#D7D2CE" />
<rect x="55" y="10" width="1" height="1" fill="#B6AEA7" />
<rect x="56" y="10" width="1" height="1" fill="#000000" />
<rect x="57" y="10" width="7" height="1" fill="#1A171A" />
<rect x="0" y="11" width="8" height="1" fill="#1A171A" />
<rect x="8" y="11" width="1" height="1" fill="#000000" />
<rect x="9" y="11" width="1" height="1" fill="#B6AEA7" />
<rect x="10" y="11" width="1" height="1" fill="#D7D2CE" />
<rect x="12" y="11" width="1" height="5" fill="#E2DEDB" />
<rect x="13" y="11" width="1" height="1" fill="#D7D2CE" />
<rect x="15" y="11" width="1" height="1" fill="#D7D2CE" />
<rect x="30" y="11" width="2" height="1" fill="#191919" />
<rect x="32" y="11" width="1" height="3" fill="#222222" />
<rect x="33" y="11" width="1" height="1" fill="#141414" />
<rect x="34" y="11" width="1" height="1" fill="#191919" />
<rect x="35" y="11" width="1" height="1" fill="#141414" />
<rect x="53" y="11" width="1" height="4" fill="#E2DEDB" />
<rect x="54" y="11" width="2" height="1" fill="#C1B8B1" />
<rect x="56" y="11" width="1" height="1" fill="#B6AEA7" />
<rect x="57" y="11" width="2" height="1" fill="#000000" />
<rect x="59" y="11" width="5" height="1" fill="#1A171A" />
<rect x="0" y="12" width="6" height="1" fill="#1A171A" />
<rect x="6" y="12" width="2" height="1" fill="#000000" />
<rect x="8" y="12" width="1" height="1" fill="#B6AEA7" />
<rect x="9" y="12" width="1" height="1" fill="#D7D2CE" />
<rect x="10" y="12" width="1" height="1" fill="#E2DEDB" />
<rect x="13" y="12" width="1" height="3" fill="#E2DEDB" />
<rect x="14" y="12" width="1" height="1" fill="#C1B8B1" />
<rect x="15" y="12" width="1" height="4" fill="#E2DEDB" />
<rect x="23" y="12" width="1" height="7" fill="#E2DEDB" />
<rect x="30" y="12" width="1" height="3" fill="#141414" />
<rect x="31" y="12" width="1" height="1" fill="#222222" />
<rect x="33" y="12" width="1" height="1" fill="#191919" />
<rect x="34" y="12" width="1" height="3" fill="#222222" />
<rect x="35" y="12" width="1" height="3" fill="#191919" />
<rect x="43" y="12" width="1" height="6" fill="#E2DEDB" />
<rect x="50" y="12" width="1" height="6" fill="#E2DEDB" />
<rect x="54" y="12" width="1" height="1" fill="#D7D2CE" />
<rect x="55" y="12" width="1" height="2" fill="#C1B8B1" />
<rect x="56" y="12" width="1" height="1" fill="#D7D2CE" />
<rect x="57" y="12" width="2" height="1" fill="#C1B8B1" />
<rect x="59" y="12" width="1" height="1" fill="#000000" />
<rect x="60" y="12" width="4" height="1" fill="#1A171A" />
<rect x="0" y="13" width="4" height="51" fill="#1A171A" />
<rect x="4" y="13" width="2" height="1" fill="#000000" />
<rect x="6" y="13" width="2" height="2" fill="#B6AEA7" />
<rect x="8" y="13" width="2" height="1" fill="#C1B8B1" />
<rect x="10" y="13" width="1" height="1" fill="#D7D2CE" />
<rect x="14" y="13" width="1" height="1" fill="#D7D2CE" />
<rect x="31" y="13" width="1" height="3" fill="#191919" />
<rect x="33" y="13" width="1" height="3" fill="#141414" />
<rect x="54" y="13" width="1" height="2" fill="#E2DEDB" />
<rect x="56" y="13" width="3" height="1" fill="#E2DEDB" />
<rect x="59" y="13" width="1" height="2" fill="#B6AEA7" />
<rect x="60" y="13" width="2" height="1" fill="#000000" />
<rect x="62" y="13" width="2" height="51" fill="#1A171A" />
<rect x="4" y="14" width="1" height="50" fill="#1A171A" />
<rect x="5" y="14" width="1" height="1" fill="#000000" />
<rect x="8" y="14" width="1" height="2" fill="#B6AEA7" />
<rect x="9" y="14" width="1" height="1" fill="#D7D2CE" />
<rect x="10" y="14" width="1" height="1" fill="#E2DEDB" />
<rect x="14" y="14" width="1" height="1" fill="#E2DEDB" />
<rect x="32" y="14" width="1" height="2" fill="#141414" />
<rect x="55" y="14" width="1" height="2" fill="#D7D2CE" />
<rect x="56" y="14" width="1" height="2" fill="#E2DEDB" />
<rect x="57" y="14" width="2" height="1" fill="#B6AEA7" />
<rect x="60" y="14" width="1" height="1" fill="#000000" />
<rect x="61" y="14" width="1" height="50" fill="#1A171A" />
<rect x="5" y="15" width="1" height="49" fill="#1A171A" />
<rect x="6" y="15" width="2" height="1" fill="#000000" />
<rect x="9" y="15" width="1" height="1" fill="#B6AEA7" />
<rect x="10" y="15" width="2" height="1" fill="#C1B8B1" />
<rect x="13" y="15" width="2" height="1" fill="#D7D2CE" />
<rect x="26" y="15" width="2" height="1" fill="#D7D2CE" />
<rect x="30" y="15" width="1" height="6" fill="#E2DEDB" />
<rect x="34" y="15" width="1" height="1" fill="#141414" />
<rect x="35" y="15" width="1" height="5" fill="#E2DEDB" />
<rect x="44" y="15" width="1" height="1" fill="#E2DEDB" />
<rect x="45" y="15" width="1" height="3" fill="#D7D2CE" />
<rect x="52" y="15" width="3" height="1" fill="#D7D2CE" />
<rect x="57" y="15" width="2" height="1" fill="#E2DEDB" />
<rect x="59" y="15" width="1" height="1" fill="#000000" />
<rect x="60" y="15" width="1" height="49" fill="#1A171A" />
<rect x="6" y="16" width="2" height="48" fill="#1A171A" />
<rect x="8" y="16" width="3" height="1" fill="#000000" />
<rect x="11" y="16" width="2" height="2" fill="#B6AEA7" />
<rect x="13" y="16" width="1" height="2" fill="#C1B8B1" />
<rect x="14" y="16" width="7" height="2" fill="#D7D2CE" />
<rect x="21" y="16" width="1" height="2" fill="#E2DEDB" />
<rect x="25" y="16" width="1" height="3" fill="#D7D2CE" />
<rect x="26" y="16" width="2" height="3" fill="#C1B8B1" />
<rect x="31" y="16" width="4" height="2" fill="#E2DEDB" />
<rect x="44" y="16" width="1" height="2" fill="#D7D2CE" />
<rect x="49" y="16" width="1" height="3" fill="#D7D2CE" />
<rect x="51" y="16" width="1" height="2" fill="#D7D2CE" />
<rect x="52" y="16" width="1" height="2" fill="#C1B8B1" />
<rect x="53" y="16" width="2" height="2" fill="#B6AEA7" />
<rect x="55" y="16" width="4" height="1" fill="#000000" />
<rect x="59" y="16" width="1" height="48" fill="#1A171A" />
<rect x="8" y="17" width="3" height="47" fill="#1A171A" />
<rect x="55" y="17" width="1" height="1" fill="#000000" />
<rect x="56" y="17" width="3" height="47" fill="#1A171A" />
<rect x="11" y="18" width="2" height="1" fill="#000000" />
<rect x="13" y="18" width="3" height="1" fill="#B6AEA7" />
<rect x="16" y="18" width="3" height="1" fill="#C1B8B1" />
<rect x="19" y="18" width="1" height="1" fill="#B6AEA7" />
<rect x="20" y="18" width="1" height="1" fill="#C1B8B1" />
<rect x="21" y="18" width="2" height="1" fill="#D7D2CE" />
<rect x="28" y="18" width="1" height="1" fill="#D7D2CE" />
<rect x="31" y="18" width="3" height="1" fill="#E2DEDB" />
<rect x="34" y="18" width="1" height="2" fill="#D7D2CE" />
<rect x="43" y="18" width="1" height="1" fill="#D7D2CE" />
<rect x="44" y="18" width="2" height="1" fill="#C1B8B1" />
<rect x="46" y="18" width="1" height="1" fill="#B6AEA7" />
<rect x="47" y="18" width="2" height="1" fill="#C1B8B1" />
<rect x="50" y="18" width="1" height="1" fill="#D7D2CE" />
<rect x="51" y="18" width="1" height="1" fill="#C1B8B1" />
<rect x="52" y="18" width="1" height="1" fill="#B6AEA7" />
<rect x="53" y="18" width="2" height="1" fill="#000000" />
<rect x="55" y="18" width="1" height="46" fill="#1A171A" />
<rect x="11" y="19" width="2" height="45" fill="#1A171A" />
<rect x="13" y="19" width="8" height="1" fill="#000000" />
<rect x="21" y="19" width="1" height="1" fill="#B6AEA7" />
<rect x="22" y="19" width="1" height="1" fill="#C1B8B1" />
<rect x="23" y="19" width="2" height="1" fill="#D7D2CE" />
<rect x="25" y="19" width="1" height="2" fill="#C1B8B1" />
<rect x="26" y="19" width="2" height="2" fill="#B6AEA7" />
<rect x="28" y="19" width="1" height="2" fill="#C1B8B1" />
<rect x="31" y="19" width="2" height="1" fill="#E2DEDB" />
<rect x="33" y="19" width="1" height="1" fill="#D7D2CE" />
<rect x="40" y="19" width="3" height="1" fill="#D7D2CE" />
<rect x="43" y="19" width="1" height="1" fill="#C1B8B1" />
<rect x="44" y="19" width="1" height="1" fill="#B6AEA7" />
<rect x="45" y="19" width="8" height="1" fill="#000000" />
<rect x="53" y="19" width="2" height="45" fill="#1A171A" />
<rect x="13" y="20" width="8" height="44" fill="#1A171A" />
<rect x="21" y="20" width="2" height="1" fill="#000000" />
<rect x="23" y="20" width="2" height="1" fill="#B6AEA7" />
<rect x="29" y="20" width="1" height="2" fill="#D7D2CE" />
<rect x="31" y="20" width="1" height="1" fill="#E2DEDB" />
<rect x="32" y="20" width="1" height="1" fill="#D7D2CE" />
<rect x="33" y="20" width="2" height="2" fill="#B6AEA7" />
<rect x="35" y="20" width="5" height="1" fill="#D7D2CE" />
<rect x="40" y="20" width="1" height="1" fill="#C1B8B1" />
<rect x="41" y="20" width="2" height="1" fill="#B6AEA7" />
<rect x="43" y="20" width="2" height="1" fill="#000000" />
<rect x="45" y="20" width="8" height="44" fill="#1A171A" />
<rect x="21" y="21" width="2" height="43" fill="#1A171A" />
<rect x="23" y="21" width="5" height="1" fill="#000000" />
<rect x="28" y="21" width="1" height="1" fill="#B6AEA7" />
<rect x="30" y="21" width="1" height="1" fill="#D7D2CE" />
<rect x="31" y="21" width="2" height="1" fill="#B6AEA7" />
<rect x="35" y="21" width="4" height="1" fill="#B6AEA7" />
<rect x="39" y="21" width="4" height="1" fill="#000000" />
<rect x="43" y="21" width="2" height="43" fill="#1A171A" />
<rect x="23" y="22" width="5" height="1" fill="#1A171A" />
<rect x="28" y="22" width="11" height="1" fill="#000000" />
<rect x="39" y="22" width="4" height="16" fill="#1A171A" />
<rect x="23" y="23" width="4" height="1" fill="#1A171A" />
<rect x="27" y="23" width="1" height="18" fill="#E5A822" />
<rect x="28" y="23" width="11" height="1" fill="#1A171A" />
<rect x="23" y="24" width="3" height="1" fill="#1A171A" />
<rect x="26" y="24" width="1" height="1" fill="#E5A822" />
<rect x="28" y="24" width="1" height="1" fill="#E5A822" />
<rect x="29" y="24" width="9" height="1" fill="#1A171A" />
<rect x="38" y="24" width="1" height="18" fill="#B6AEA7" />
<rect x="23" y="25" width="2" height="1" fill="#1A171A" />
<rect x="25" y="25" width="1" height="1" fill="#E5A822" />
<rect x="26" y="25" width="1" height="18" fill="#1A171A" />
<rect x="28" y="25" width="1" height="18" fill="#1A171A" />
<rect x="29" y="25" width="1" height="1" fill="#E5A822" />
<rect x="30" y="25" width="8" height="1" fill="#1A171A" />
<rect x="23" y="26" width="1" height="38" fill="#1A171A" />
<rect x="24" y="26" width="1" height="1" fill="#E5A822" />
<rect x="25" y="26" width="1" height="17" fill="#1A171A" />
<rect x="29" y="26" width="1" height="17" fill="#1A171A" />
<rect x="30" y="26" width="1" height="1" fill="#E5A822" />
<rect x="31" y="26" width="7" height="12" fill="#1A171A" />
<rect x="24" y="27" width="1" height="37" fill="#1A171A" />
<rect x="30" y="27" width="1" height="16" fill="#1A171A" />
<rect x="31" y="38" width="4" height="5" fill="#1A171A" />
<rect x="35" y="38" width="1" height="1" fill="#B6AEA7" />
<rect x="36" y="38" width="2" height="1" fill="#1A171A" />
<rect x="39" y="38" width="2" height="1" fill="#1A171A" />
<rect x="41" y="38" width="1" height="1" fill="#B6AEA7" />
<rect x="42" y="38" width="1" height="26" fill="#1A171A" />
<rect x="35" y="39" width="1" height="4" fill="#1A171A" />
<rect x="36" y="39" width="1" height="1" fill="#B6AEA7" />
<rect x="37" y="39" width="1" height="1" fill="#1A171A" />
<rect x="39" y="39" width="1" height="1" fill="#1A171A" />
<rect x="40" y="39" width="1" height="1" fill="#B6AEA7" />
<rect x="41" y="39" width="1" height="25" fill="#1A171A" />
<rect x="36" y="40" width="1" height="3" fill="#1A171A" />
<rect x="37" y="40" width="1" height="1" fill="#B6AEA7" />
<rect x="39" y="40" width="1" height="1" fill="#B6AEA7" />
<rect x="40" y="40" width="1" height="5" fill="#1A171A" />
<rect x="27" y="41" width="1" height="2" fill="#1A171A" />
<rect x="37" y="41" width="1" height="2" fill="#1A171A" />
<rect x="39" y="41" width="1" height="4" fill="#1A171A" />
<rect x="38" y="42" width="1" height="3" fill="#1A171A" />
<rect x="25" y="43" width="1" height="2" fill="#42331B" />
<rect x="26" y="43" width="2" height="2" fill="#9C741E" />
<rect x="28" y="43" width="2" height="2" fill="#88661E" />
<rect x="30" y="43" width="3" height="2" fill="#85641D" />
<rect x="33" y="43" width="2" height="2" fill="#8C691D" />
<rect x="35" y="43" width="1" height="2" fill="#936D1E" />
<rect x="36" y="43" width="2" height="2" fill="#1C191A" />
<rect x="25" y="45" width="1" height="1" fill="#9A711E" />
<rect x="26" y="45" width="2" height="1" fill="#352B1B" />
<rect x="28" y="45" width="7" height="1" fill="#1A171A" />
<rect x="35" y="45" width="1" height="1" fill="#805F1D" />
<rect x="36" y="45" width="2" height="1" fill="#A2781F" />
<rect x="38" y="45" width="1" height="1" fill="#78591D" />
<rect x="39" y="45" width="2" height="1" fill="#2A221A" />
<rect x="25" y="46" width="1" height="2" fill="#A57A1E" />
<rect x="26" y="46" width="2" height="2" fill="#C38F20" />
<rect x="28" y="46" width="5" height="2" fill="#A1771F" />
<rect x="33" y="46" width="2" height="2" fill="#AA7D1E" />
<rect x="35" y="46" width="1" height="2" fill="#D8A020" />
<rect x="36" y="46" width="3" height="5" fill="#E5A822" />
<rect x="39" y="46" width="2" height="2" fill="#AD801F" />
<rect x="25" y="48" width="1" height="1" fill="#A97D1E" />
<rect x="26" y="48" width="10" height="3" fill="#E5A822" />
<rect x="39" y="48" width="2" height="1" fill="#DBA121" />
<rect x="25" y="49" width="1" height="2" fill="#98701E" />
<rect x="39" y="49" width="2" height="2" fill="#D89D21" />
<rect x="25" y="51" width="1" height="1" fill="#3D301B" />
<rect x="26" y="51" width="2" height="1" fill="#C49120" />
<rect x="28" y="51" width="2" height="1" fill="#DCA121" />
<rect x="30" y="51" width="8" height="1" fill="#D79E21" />
<rect x="38" y="51" width="1" height="1" fill="#D39B20" />
<rect x="39" y="51" width="2" height="1" fill="#7C5D1D" />
<rect x="25" y="52" width="3" height="12" fill="#1A171A" />
<rect x="28" y="52" width="2" height="2" fill="#694F1C" />
<rect x="30" y="52" width="11" height="12" fill="#1A171A" />
<rect x="28" y="54" width="2" height="10" fill="#1A171A" />
</svg>